<?xml version="1.0" standalone="no"?>
<!DOCTYPE svg PUBLIC "-//W3C//DTD SVG 20010904//EN"
 "http://www.w3.org/TR/2001/REC-SVG-20010904/DTD/svg10.dtd">
<svg version="1.0" xmlns="http://www.w3.org/2000/svg"
 width="260.000000pt" height="260.000000pt" viewBox="0 0 260.000000 260.000000"
 preserveAspectRatio="xMidYMid meet">
<metadata>
Created by potrace 1.14, written by Peter Selinger 2001-2017
</metadata>
<g transform="translate(0.000000,260.000000) scale(0.100000,-0.100000)"
fill="#000000" stroke="none">
<path d="M0 1300 l0 -1300 1300 0 1300 0 0 1300 0 1300 -1300 0 -1300 0 0
-1300z m789 910 c76 -21 126 -99 142 -218 8 -62 27 -712 29 -1003 0 -100 1
-100 176 -111 82 -5 274 -12 426 -16 304 -8 301 -7 352 -76 31 -41 35 -178 7
-223 -39 -63 -64 -68 -274 -65 -194 3 -536 -10 -738 -29 -174 -16 -241 12
-288 121 -38 88 -62 418 -66 915 -1 160 -5 351 -9 425 -7 129 -6 137 16 179
26 50 56 75 114 96 47 17 69 18 113 5z"/>
</g>
</svg>
